<?xml version="1.0" standalone="no"?>
<!DOCTYPE svg PUBLIC "-//W3C//DTD SVG 20010904//EN"
 "http://www.w3.org/TR/2001/REC-SVG-20010904/DTD/svg10.dtd">
<svg version="1.0" xmlns="http://www.w3.org/2000/svg"
 width="330.000000pt" height="364.000000pt" viewBox="0 0 330.000000 364.000000"
 preserveAspectRatio="xMidYMid meet">

<g transform="translate(0.000000,364.000000) scale(0.100000,-0.100000)"
fill="#000000" stroke="none">
<path d="M2165 3095 c6 -2 57 -9 115 -16 l105 -12 62 -63 c34 -35 81 -75 105
-90 l43 -27 -35 40 c-19 23 -44 56 -55 74 -28 46 -71 68 -162 84 -67 12 -207
20 -178 10z"/>
<path d="M2088 3083 c7 -3 16 -2 19 1 4 3 -2 6 -13 5 -11 0 -14 -3 -6 -6z"/>
<path d="M1871 3030 c-121 -44 -285 -162 -342 -247 l-31 -48 31 32 c26 27 37
31 61 26 25 -5 30 -2 30 14 0 43 21 80 58 100 40 21 58 18 114 -20 22 -15 33
-17 65 -8 36 10 37 9 18 -6 l-20 -16 20 8 c11 4 52 18 90 32 47 16 58 22 32
18 -21 -3 -44 -8 -51 -11 -8 -3 -16 16 -23 58 -9 54 -9 65 5 76 22 17 6 15
-57 -8z"/>
<path d="M2700 2844 c27 -61 26 -63 -15 -24 -46 45 -45 33 2 -16 20 -21 45
-52 55 -69 10 -16 18 -28 18 -25 0 9 -48 137 -59 159 -21 38 -21 22 -1 -25z"/>
<path d="M2022 2854 c-29 -7 -86 -29 -127 -48 l-75 -35 13 -28 c29 -67 30 -68
114 -71 69 -3 83 -1 115 20 27 17 39 34 47 65 18 68 15 93 -11 94 -22 0 -22 1
-3 9 l20 9 -20 0 c-11 0 -44 -7 -73 -15z"/>
<path d="M2671 2639 c-25 -84 -64 -144 -142 -222 -44 -43 -70 -73 -59 -67 11
6 20 8 20 4 0 -3 7 -1 15 6 9 7 14 15 11 17 -2 2 18 27 45 56 27 29 56 67 66
85 10 17 21 32 26 32 10 0 0 -37 -20 -70 -10 -16 -11 -21 -2 -12 19 17 37 15
41 -5 5 -27 38 84 38 126 -1 20 -7 49 -13 65 l-13 29 -13 -44z"/>
<path d="M1446 2490 c2 -52 5 -105 7 -118 2 -20 -7 -27 -58 -49 -33 -14 -69
-26 -81 -28 -12 -1 -44 -10 -72 -20 -36 -13 -52 -25 -54 -39 -4 -28 -43 -46
-100 -46 -56 0 -108 -37 -108 -76 0 -29 22 -75 44 -93 9 -8 16 -22 16 -31 0
-16 23 -9 153 46 83 36 162 72 174 79 l22 15 -24 25 c-14 13 -25 30 -25 38 0
7 29 26 65 42 39 16 61 31 54 35 -8 6 -7 9 2 12 8 3 19 -2 26 -11 10 -13 10
-9 0 18 -7 19 -13 27 -15 18 -2 -9 -13 -19 -24 -23 -15 -4 -17 -8 -8 -14 8 -5
-3 -8 -25 -8 -22 0 -43 -6 -49 -14 -14 -19 -44 -19 -50 -1 -4 9 7 19 32 29 20
8 56 24 80 35 l44 20 -8 77 c-13 139 -24 187 -18 82z"/>
<path d="M2700 2466 c-5 -15 -3 -23 9 -28 28 -12 38 -9 54 16 16 24 16 24 -19
28 -29 3 -37 0 -44 -16z"/>
<path d="M1545 2340 c7 -36 48 -114 65 -125 5 -3 7 0 4 8 -3 8 -1 18 5 22 8 4
8 12 1 26 -8 13 -7 19 0 19 6 0 -6 15 -27 32 -21 18 -42 37 -46 43 -5 5 -5 -6
-2 -25z"/>
<path d="M2499 2334 c-47 -39 -160 -100 -124 -66 72 66 67 69 -29 22 -83 -40
-95 -48 -95 -71 -1 -20 -7 -28 -26 -33 -30 -8 -33 -26 -5 -26 21 0 27 -15 10
-25 -6 -4 -8 -11 -5 -16 4 -5 1 -9 -6 -9 -7 0 -10 -2 -7 -5 7 -8 109 25 104
33 -3 5 15 27 40 51 34 33 39 41 22 36 -17 -5 -13 0 12 18 38 26 78 42 97 39
6 -2 15 3 19 9 4 8 3 9 -4 5 -23 -14 -12 8 20 41 42 43 31 42 -23 -3z"/>
<path d="M2470 2223 c-14 -10 -52 -33 -85 -51 -33 -19 -51 -31 -40 -27 30 9
143 74 150 85 9 14 3 12 -25 -7z"/>
<path d="M1819 2199 c-9 -6 8 -9 45 -9 33 0 57 2 55 4 -10 9 -88 13 -100 5z"/>
<path d="M1650 2176 c0 -3 9 -10 20 -16 11 -6 20 -8 20 -6 0 3 -9 10 -20 16
-11 6 -20 8 -20 6z"/>
<path d="M1818 2163 c6 -2 18 -2 25 0 6 3 1 5 -13 5 -14 0 -19 -2 -12 -5z"/>
<path d="M1868 2153 c7 -3 16 -2 19 1 4 3 -2 6 -13 5 -11 0 -14 -3 -6 -6z"/>
<path d="M555 1982 c-155 -66 -180 -81 -183 -101 -6 -41 8 -89 35 -122 21 -24
32 -30 53 -26 37 8 340 137 340 146 0 4 -4 11 -10 17 -16 16 -48 124 -43 145
3 10 1 19 -3 18 -5 0 -90 -35 -189 -77z"/>
<path d="M950 1991 c5 -11 15 -23 21 -27 6 -3 3 5 -6 20 -20 30 -30 35 -15 7z"/>
</g>
</svg>
